<?xml version="1.0" encoding="UTF-8"?>
<svg version="1.1" xmlns="http://www.w3.org/2000/svg" width="2481" height="3508">
<path d="M0 0 C4.19598698 2.11775924 7.67575453 4.97804421 11.33984375 7.90234375 C12.13680664 8.53124512 12.93376953 9.16014648 13.75488281 9.80810547 C15.37657543 11.08813295 16.99654418 12.37034759 18.61474609 13.65478516 C20.63514362 15.253422 22.66502798 16.83810165 24.703125 18.4140625 C30.58792938 22.9710725 36.36778192 27.63017641 42.02734375 32.46484375 C42.54071289 32.9026416 43.05408203 33.34043945 43.58300781 33.79150391 C53.25885813 42.14029487 62.53335209 50.90909675 71.56713867 59.94433594 C73.09471791 61.46971088 74.63017957 62.98685047 76.16601562 64.50390625 C82.52862351 70.83051897 88.33740105 77.41283457 93.90234375 84.46484375 C94.83117442 85.59942709 95.761802 86.73254525 96.6953125 87.86328125 C140.09512195 141.81214716 162.80157377 209.61035317 156.39453125 278.921875 C155.81954912 283.82859465 154.95088595 288.63907276 153.90234375 293.46484375 C153.65291016 294.66850586 153.65291016 294.66850586 153.3984375 295.89648438 C145.09510487 335.10666626 125.40175438 370.7149934 98.1953125 399.98828125 C96.25131472 402.08793132 94.37972955 404.22253866 92.52734375 406.40234375 C85.30163253 414.70422473 77.30733613 422.37170136 68.90234375 429.46484375 C67.99613281 430.26019531 67.08992188 431.05554687 66.15625 431.875 C57.18433193 439.69939726 47.65632011 446.65129169 37.90234375 453.46484375 C37.26570801 453.91214844 36.62907227 454.35945313 35.97314453 454.8203125 C10.0155496 472.95784188 -18.44881304 486.56541306 -48.09765625 497.46484375 C-49.61697754 498.02365234 -49.61697754 498.02365234 -51.16699219 498.59375 C-93.73122081 514.00959491 -139.07675409 521.30804759 -184.09765625 524.46484375 C-185.26989746 524.55161377 -185.26989746 524.55161377 -186.46582031 524.64013672 C-261.93214384 530.04893107 -337.58542458 517.73051864 -462.53515625 475.52734375 C-463.21505615 475.25189728 -463.89495605 474.97645081 -464.59545898 474.69265747 C-471.55953523 471.86034055 -478.43545853 468.96018136 -485.09765625 465.46484375 C-485.09765625 465.13484375 -485.09765625 464.80484375 -485.09765625 464.46484375 C-476.18034488 463.60391186 -467.30095709 463.24968836 -458.34765625 463.02734375 C-404.88088701 462.34110891 -404.88088701 462.34110891 -358.09765625 439.46484375 C-369.03839792 437.82783843 -379.95967972 436.84867768 -390.99167442 436.07927322 C-393.94775507 435.87273111 -396.90332183 435.65982449 -399.85884094 435.44540405 C-408.25351128 434.83750401 -416.64895575 434.2406432 -425.04467773 433.64746094 C-491.08170605 428.97191566 -491.08170605 428.97191566 -521.72265625 423.58984375 C-522.45283966 423.46445221 -523.18302307 423.33906067 -523.93533325 423.20986938 C-580.29766221 413.51246748 -580.29766221 413.51246748 -604.09765625 401.46484375 C-604.42765625 400.80484375 -604.75765625 400.14484375 -605.09765625 399.46484375 C-601.83262059 398.49376447 -598.86540439 398.32934629 -595.46557617 398.30712891 C-593.76681587 398.29173569 -593.76681587 398.29173569 -592.03373718 398.27603149 C-590.81088516 398.26873016 -589.58803314 398.26142883 -588.328125 398.25390625 C-585.72069713 398.22581162 -583.11327535 398.19714703 -580.50585938 398.16796875 C-576.40962108 398.12580715 -572.31341821 398.08900185 -568.21704102 398.06347656 C-537.37558587 397.94107219 -537.37558587 397.94107219 -509.09765625 386.46484375 C-513.98692684 376.48258297 -521.70739061 371.08873305 -532.09765625 367.46484375 C-547.77984919 363.11600033 -563.91154588 362.04825257 -580.09765625 362.08984375 C-580.90203125 362.09038757 -581.70640625 362.0909314 -582.53515625 362.0914917 C-596.37077682 362.13424913 -609.60272095 363.23408048 -623.09765625 366.46484375 C-624.43256104 366.77832764 -624.43256104 366.77832764 -625.79443359 367.09814453 C-678.21710626 379.80176915 -727.18921869 416.57319882 -755.47924805 462.30883789 C-765.8923827 479.55707101 -773.38655034 497.8867233 -778.09765625 517.46484375 C-778.26426758 518.12661621 -778.43087891 518.78838867 -778.60253906 519.47021484 C-784.10221575 542.13503149 -782.95179866 569.02714785 -777.09765625 591.46484375 C-776.91041992 592.18720215 -776.72318359 592.90956055 -776.53027344 593.65380859 C-775.27064326 598.34098169 -773.77190734 602.91046852 -772.09765625 607.46484375 C-771.85176758 608.13789551 -771.60587891 608.81094727 -771.35253906 609.50439453 C-765.28263876 625.79868776 -757.1231558 640.98718461 -746.09765625 654.46484375 C-745.46972168 655.24287354 -745.46972168 655.24287354 -744.82910156 656.03662109 C-734.23731048 669.12129111 -722.70461525 680.52872012 -709.09765625 690.46484375 C-708.53272461 690.87943848 -707.96779297 691.2940332 -707.38574219 691.72119141 C-649.27141284 733.7815623 -571.44991058 743.42946763 -502.12890625 732.3984375 C-495.41515212 731.2542461 -488.75236939 729.91113735 -482.09765625 728.46484375 C-481.00517578 728.22813965 -479.91269531 727.99143555 -478.78710938 727.74755859 C-448.52135979 721.0243019 -419.2457236 710.36762998 -390.5234375 698.82421875 C-388.82900513 698.14383545 -388.82900513 698.14383545 -387.1003418 697.44970703 C-384.90853535 696.56728116 -382.71847843 695.68049249 -380.53051758 694.78857422 C-365.50058798 688.70367106 -365.50058798 688.70367106 -361.09765625 690.46484375 C-418.50993659 727.64299663 -486.03419602 754.13316799 -555.09765625 755.46484375 C-555.95359375 755.48530762 -556.80953125 755.50577148 -557.69140625 755.52685547 C-595.1793616 756.31436286 -630.81737482 750.15692861 -667.09765625 741.46484375 C-667.42765625 743.11484375 -667.75765625 744.76484375 -668.09765625 746.46484375 C-664.71573998 749.01545099 -661.32705333 751.55675251 -657.93310547 754.09130859 C-656.70384346 755.01121123 -655.47631588 755.9334359 -654.25048828 756.85791016 C-649.91277979 760.12735161 -645.53508211 763.33195624 -641.09765625 766.46484375 C-640.19273437 767.10421875 -639.2878125 767.74359375 -638.35546875 768.40234375 C-610.61143703 786.18486853 -572.35730597 791.7868769 -540.09765625 794.46484375 C-538.83308594 794.57699219 -537.56851562 794.68914063 -536.265625 794.8046875 C-455.09132269 800.80846062 -369.17415256 786.79129524 -252.0390625 750.96337891 C-251.39924438 750.7252095 -250.75942627 750.4870401 -250.10021973 750.24165344 C-248.37454379 749.5922716 -246.65479229 748.92720657 -244.93554688 748.26098633 C-242.08362957 747.4609087 -240.81351988 747.40534496 -238.09765625 748.46484375 C-298.84860991 784.38892629 -365.82674968 798.64449404 -434.6796875 809.828125 C-436.0692503 810.05391928 -436.0692503 810.05391928 -437.48688507 810.28427505 C-446.92855946 811.8176325 -456.37118995 813.34448364 -465.81797791 814.84604454 C-489.34538325 818.58834583 -512.74763426 822.7359192 -536.09765625 827.46484375 C-536.42765625 829.44484375 -536.75765625 831.42484375 -537.09765625 833.46484375 C-536.49445557 833.57441406 -535.89125488 833.68398437 -535.26977539 833.796875 C-532.23275002 834.35023727 -529.19640822 834.9072531 -526.16015625 835.46484375 C-524.96213379 835.68414551 -523.76411133 835.90344727 -522.52978516 836.12939453 C-515.30469251 837.46374623 -508.09653768 838.8589265 -500.8984375 840.33203125 C-410.62199159 858.72389612 -317.02050356 865.93867564 -11.54296875 775.82421875 C3.88226864 765.49216969 18.69060388 754.41330797 32.90234375 742.46484375 C33.42328613 742.02881836 33.94422852 741.59279297 34.48095703 741.14355469 C43.91691486 733.22846094 53.00589215 724.98072362 61.90234375 716.46484375 C62.52157715 715.87429199 63.14081055 715.28374023 63.77880859 714.67529297 C65.58030964 712.94875562 67.36857918 711.20968247 69.15234375 709.46484375 C69.68931885 708.94929932 70.22629395 708.43375488 70.77954102 707.90258789 C74.0081407 704.70211281 76.19188158 701.68242171 77.90234375 697.46484375 C77.90234375 696.47484375 77.90234375 695.48484375 77.90234375 694.46484375 C59.2867488 703.38631288 40.76335769 712.46653753 22.40234375 721.90234375 C21.61270233 722.30787476 20.82306091 722.71340576 20.00949097 723.13122559 C-7.28523704 735.58632278 -7.28523704 735.58632278 -31.53515625 752.52734375 C-52.51328145 772.11135304 -85.83876791 791.42783663 -114.97265625 793.77734375 C-118.44677593 793.42993178 -118.9029 792.9553007 -121.09765625 790.46484375 C-116.72802084 788.44992407 -112.36642589 786.50655624 -107.8203125 784.921875 C-83.19158873 776.3019552 -59.99144128 763.33313732 -37.25878906 750.65185547 C-35.3217785 749.58794389 -33.37226232 748.56377556 -31.40234375 747.5625 C-25.63243279 744.60802752 -20.44137726 741.36099666 -15.28515625 737.46484375 C15.27746544 714.39123706 54.25820829 691.50160747 92.90234375 686.46484375 C91.21642864 690.33585555 88.69690669 693.49592176 86.08984375 696.77734375 C85.60555908 697.38908447 85.12127441 698.0008252 84.62231445 698.63110352 C71.13198835 715.5300097 56.28150251 731.16396196 41.02734375 746.46484375 C40.53502258 746.95984375 40.04270142 747.45484375 39.53546143 747.96484375 C33.83806952 753.68577172 28.05497334 759.23292443 21.90234375 764.46484375 C20.81904932 765.41392471 19.736968 766.36439255 18.65625 767.31640625 C9.7127313 775.11763671 0.42027344 782.37976707 -9.09765625 789.46484375 C-9.80905762 789.99722656 -10.52045898 790.52960937 -11.25341797 791.078125 C-78.99156259 841.59366583 -159.83405707 872.92160373 -475.87329102 883.67675781 C-478.29321085 883.44621337 -480.66822975 883.42949885 -483.09765625 883.46484375 C-482.36466309 883.88145264 -481.63166992 884.29806152 -480.87646484 884.72729492 C-468.46403877 891.78733418 -456.05765176 898.85071314 -443.78515625 906.15234375 C-389.64017817 938.28287328 -335.81265898 959.00859445 -275.15966797 974.61523438 C-261.35724436 978.17143439 -247.58927547 981.77457364 -233.94921875 985.91796875 C-232.85346527 986.24714294 -231.75771179 986.57631714 -230.62875366 986.91546631 C-229.14890488 987.37545013 -229.14890488 987.37545013 -227.63916016 987.84472656 C-226.78029205 988.11053528 -225.92142395 988.37634399 -225.03652954 988.65020752 C-223.09765625 989.46484375 -223.09765625 989.46484375 -222.09765625 991.46484375 C-383.72220121 968.98740347 -383.72220121 968.98740347 -449.09765625 938.46484375 C-450.64743164 937.74361328 -450.64743164 937.74361328 -452.22851562 937.0078125 C-474.64367722 926.52620085 -496.42036711 915.12085183 -517.69384766 902.48388672 C-520.76457794 900.66241638 -523.84023713 898.84973668 -526.91812134 897.04040527 C-539.6571877 889.54937652 -552.36389017 882.03869955 -564.78515625 874.02734375 C-583.9058697 861.71460324 -603.95547333 850.99929998 -624.09765625 840.46484375 C-624.76696167 840.1140979 -625.43626709 839.76335205 -626.12585449 839.40197754 C-630.31709395 837.20847088 -634.51873764 835.03678678 -638.73348999 832.88879395 C-640.07144129 832.20474299 -641.40704265 831.51607019 -642.73989868 830.82214355 C-650.0815815 827.00820304 -657.37015664 823.82895436 -665.3046875 821.44140625 C-666.0227507 821.22277924 -666.7408139 821.00415222 -667.4806366 820.77890015 C-672.19098446 819.44994866 -674.79539911 819.31371518 -679.09765625 821.46484375 C-677.36637849 833.70570902 -669.85278084 846.16940945 -662.09765625 855.46484375 C-661.27910156 856.48320312 -660.46054687 857.5015625 -659.6171875 858.55078125 C-652.26914831 867.47882257 -644.12131668 875.65157917 -635.97265625 883.83984375 C-635.42007141 884.39769562 -634.86748657 884.95554749 -634.29815674 885.53030396 C-627.23159555 892.64883863 -619.97751379 899.23741574 -612.09765625 905.46484375 C-610.78064287 906.5494979 -609.46651439 907.63767138 -608.15625 908.73046875 C-592.28621882 921.85061402 -575.52489358 933.51336574 -558.09765625 944.46484375 C-557.04787598 945.12532715 -555.9980957 945.78581055 -554.91650391 946.46630859 C-535.79751233 958.43199264 -516.15421981 968.98595493 -495.949646 979.01637268 C-494.27672882 979.84699759 -492.6040791 980.67816137 -490.93170166 981.50987244 C-486.83004897 983.5496502 -482.7254527 985.58282228 -478.61328125 987.60131836 C-477.11579633 988.3421051 -475.6183963 989.08306346 -474.12109375 989.82421875 C-473.07627335 990.3326104 -473.07627335 990.3326104 -472.01034546 990.85127258 C-467.21100463 993.23814699 -467.21100463 993.23814699 -466.09765625 995.46484375 C-521.98104667 987.10109213 -577.32623913 957.65244695 -622.0625 923.99414062 C-624.09606816 922.4660371 -626.14195703 920.9559362 -628.19140625 919.44921875 C-640.55059945 910.32575167 -652.62644107 900.81717707 -663.953125 890.4296875 C-665.91143753 888.63545944 -667.89991762 886.88789139 -669.91015625 885.15234375 C-678.70984512 877.45920258 -687.19264573 869.46305256 -695.47265625 861.21484375 C-696.45298828 860.24140015 -696.45298828 860.24140015 -697.453125 859.24829102 C-701.29549394 855.39369457 -704.94687492 851.42361954 -708.50341797 847.30419922 C-710.61001314 844.87371101 -712.79025779 842.51477172 -714.97265625 840.15234375 C-719.89348406 834.7498084 -724.52374364 829.16178206 -729.09765625 823.46484375 C-730.0331941 822.32107437 -730.96942586 821.17787231 -731.90625 820.03515625 C-739.424949 810.81665272 -746.38505125 801.28357187 -753.09765625 791.46484375 C-753.6086084 790.7176709 -754.11956055 789.97049805 -754.64599609 789.20068359 C-761.48320266 779.16034545 -768.03845414 768.99416651 -774.09765625 758.46484375 C-774.48630859 757.79050293 -774.87496094 757.11616211 -775.27539062 756.42138672 C-800.57760072 712.26475195 -818.08523166 664.98936295 -825.09765625 614.46484375 C-825.21625 613.63146484 -825.33484375 612.79808594 -825.45703125 611.93945312 C-828.15802257 591.95533285 -827.28464407 571.58185673 -827.09765625 551.46484375 C-829.03731914 554.88028659 -830.97417009 558.29731557 -832.91015625 561.71484375 C-833.49385986 562.74432129 -834.07756348 563.77379883 -834.67895508 564.83447266 C-837.60414801 570.00618522 -840.50532328 575.1881176 -843.33984375 580.41015625 C-843.83766357 581.32635742 -844.3354834 582.24255859 -844.84838867 583.18652344 C-845.79352845 584.93194045 -846.73393575 586.67992985 -847.66918945 588.43066406 C-848.09288818 589.21280273 -848.51658691 589.99494141 -848.953125 590.80078125 C-849.50456177 591.83017822 -849.50456177 591.83017822 -850.06713867 592.88037109 C-851.09765625 594.46484375 -851.09765625 594.46484375 -853.09765625 595.46484375 C-847.74208779 555.04431577 -836.80382619 514.2708075 -819.09765625 477.46484375 C-818.77055664 476.78035156 -818.44345703 476.09585938 -818.10644531 475.390625 C-808.26728946 454.92518083 -796.35521851 436.15835007 -782.09765625 418.46484375 C-783.13664063 418.98433594 -784.175625 419.50382812 -785.24609375 420.0390625 C-792.86328125 423.84765625 -800.48046875 427.65625 -808.09765625 431.46484375 C-810.07765625 427.99984375 -810.07765625 427.99984375 -812.09765625 424.46484375 C-802.81894998 417.71873122 -793.50979575 411.0238709 -784.09765625 404.46484375 C-777.72196837 400.02151754 -771.38592666 395.53106131 -765.09765625 390.96484375 C-758.80938492 386.39862552 -752.47330942 381.9082204 -746.09765625 377.46484375 C-737.40453288 371.40594895 -728.79580685 365.23732764 -720.22729492 359.00366211 C-717.1932345 356.81133346 -714.14365395 354.6405564 -711.09765625 352.46484375 C-720.00765625 352.13484375 -728.91765625 351.80484375 -738.09765625 351.46484375 C-715.77943814 329.14662564 -669.69368587 325.32956815 -640.22265625 325.26489258 C-632.84693173 325.27304924 -625.4724065 325.34841918 -618.09765625 325.46484375 C-618.09765625 324.47484375 -618.09765625 323.48484375 -618.09765625 322.46484375 C-632.03016693 318.53152712 -646.0210593 314.84538146 -660.03515625 311.21484375 C-663.1647024 310.40348885 -666.29412793 309.59167978 -669.42323303 308.77862549 C-671.3505676 308.27787936 -673.27815883 307.77811977 -675.20603943 307.27947998 C-676.49998375 306.94342743 -676.49998375 306.94342743 -677.82006836 306.60058594 C-678.5762999 306.40470886 -679.33253143 306.20883179 -680.11167908 306.00701904 C-681.78993915 305.54885106 -683.44725409 305.0149778 -685.09765625 304.46484375 C-685.09765625 303.80484375 -685.09765625 303.14484375 -685.09765625 302.46484375 C-634.60002318 282.68820418 -570.79804245 302.29307517 -522.5324707 320.67382812 C-520.04880262 321.61933395 -520.04880262 321.61933395 -517.09765625 321.46484375 C-517.61352798 320.96007507 -518.12939972 320.4553064 -518.66090393 319.9352417 C-523.51525602 315.18098658 -528.3576055 310.41480654 -533.18667698 305.63488388 C-535.66993553 303.1777428 -538.1576389 300.72547656 -540.65600586 298.28369141 C-543.52667167 295.4776383 -546.3769809 292.65168177 -549.2265625 289.82421875 C-550.12854874 288.94803894 -551.03053497 288.07185913 -551.95985413 287.16912842 C-552.78078049 286.34857971 -553.60170685 285.52803101 -554.44750977 284.68261719 C-555.17809097 283.96313904 -555.90867218 283.24366089 -556.66139221 282.50238037 C-558.09765625 280.46484375 -558.09765625 280.46484375 -557.82579041 278.20123291 C-557.58550613 277.62822449 -557.34522186 277.05521606 -557.09765625 276.46484375 C-552.74349502 277.7916831 -548.95113373 279.49153068 -544.9765625 281.703125 C-544.4040274 282.01988693 -543.83149231 282.33664886 -543.24160767 282.66300964 C-541.37814336 283.69586123 -539.51897193 284.73615238 -537.66015625 285.77734375 C-536.354057 286.50544961 -535.04782159 287.23331127 -533.74145508 287.9609375 C-531.10307068 289.43159239 -528.46659346 290.90560034 -525.83105469 292.38134766 C-522.53689159 294.22357656 -519.22951992 296.04074561 -515.91796875 297.8515625 C-494.96915337 309.38012819 -475.39639038 322.99073307 -456.01953125 336.96337891 C-445.33953215 344.66435048 -434.41806893 351.73879739 -423.09765625 358.46484375 C-425.6160805 354.15093224 -428.13751825 349.8387918 -430.66015625 345.52734375 C-431.03848602 344.88034515 -431.4168158 344.23334656 -431.80661011 343.56674194 C-436.01843644 336.36691053 -440.24988377 329.18062942 -444.56640625 322.04296875 C-444.91541489 321.46522202 -445.26442352 320.88747528 -445.62400818 320.29222107 C-447.28493314 317.54460248 -448.95142619 314.80057876 -450.62524414 312.06079102 C-451.2155542 311.08682373 -451.80586426 310.11285645 -452.4140625 309.109375 C-453.19438843 307.83090698 -453.19438843 307.83090698 -453.99047852 306.52661133 C-455.09765625 304.46484375 -455.09765625 304.46484375 -455.09765625 302.46484375 C-449.54710942 304.05456347 -444.74647945 306.62362725 -439.72265625 309.40234375 C-438.842146 309.88888428 -437.96163574 310.3754248 -437.05444336 310.87670898 C-416.02475241 322.6860838 -397.25943624 338.11806325 -379.47265625 354.30859375 C-377.92142931 355.71694453 -376.35929752 357.1134021 -374.78515625 358.49609375 C-368.82018884 363.75468344 -363.19102511 369.29723534 -357.6262207 374.97314453 C-354.66019461 377.98100175 -351.66652093 380.87461386 -348.44921875 383.61328125 C-341.72152042 389.41594142 -335.61081608 395.89810769 -329.37011719 402.21289062 C-323.12318011 408.52730456 -316.88235939 414.7214764 -310.09765625 420.46484375 C-307.52196656 422.7843875 -304.95707743 425.11517988 -302.39453125 427.44921875 C-299.38118547 430.13857062 -299.38118547 430.13857062 -296.09765625 432.46484375 C-295.10765625 432.13484375 -294.11765625 431.80484375 -293.09765625 431.46484375 C-293.70415827 427.29007746 -296.0791758 424.21147137 -298.4140625 420.8203125 C-298.85794815 420.16540329 -299.3018338 419.51049408 -299.75917053 418.83573914 C-300.71189876 417.43072283 -301.66702983 416.02733342 -302.62432861 414.62542725 C-304.5629658 411.78248356 -306.48367277 408.927636 -308.40507507 406.07302856 C-309.90255308 403.84971682 -311.4033404 401.62867256 -312.9050293 399.40820312 C-315.04143296 396.24904273 -317.1739812 393.08732696 -319.30395508 389.92382812 C-324.48162778 382.24108882 -329.69059027 374.58655633 -335.01953125 367.0078125 C-336.35379112 365.09613248 -337.68660913 363.18345707 -339.01882935 361.27035522 C-339.85807652 360.07376816 -340.70395099 358.88180001 -341.55661011 357.69473267 C-342.72561536 356.06697557 -343.87131153 354.42255289 -345.015625 352.77734375 C-345.66297607 351.86597656 -346.31032715 350.95460938 -346.97729492 350.015625 C-348.09765625 347.46484375 -348.09765625 347.46484375 -347.4152832 344.6953125 C-346.09765625 342.46484375 -346.09765625 342.46484375 -344.09765625 341.46484375 C-332.09272347 349.62428175 -320.08874767 357.78507189 -308.09765625 365.96484375 C-300.26903742 371.30512591 -292.43498837 376.63735758 -284.59765625 381.96484375 C-273.9917873 389.17451997 -263.39355632 396.39531953 -252.79931641 403.62207031 C-248.23255897 406.73700661 -243.66507555 409.85087805 -239.09765625 412.96484375 C-233.63246199 416.69089261 -228.16739926 420.41713329 -222.703125 424.14453125 C-211.96120601 431.47138929 -201.21369425 438.7899423 -190.45874023 446.09765625 C-185.23468946 449.64806914 -180.01414226 453.20343621 -174.80078125 456.76953125 C-173.79853516 457.45466797 -172.79628906 458.13980469 -171.76367188 458.84570312 C-169.87092274 460.14007477 -167.97894906 461.43558138 -166.08789062 462.73242188 C-165.24033203 463.31185547 -164.39277344 463.89128906 -163.51953125 464.48828125 C-162.7831543 464.99278809 -162.04677734 465.49729492 -161.28808594 466.01708984 C-158.93236522 467.57409206 -156.52846203 469.02845852 -154.09765625 470.46484375 C-153.43765625 469.80484375 -152.77765625 469.14484375 -152.09765625 468.46484375 C-152.28696237 462.48277047 -155.28662521 457.24627854 -157.84765625 451.96484375 C-158.57867554 450.45156494 -158.57867554 450.45156494 -159.32446289 448.90771484 C-169.82262446 427.552537 -182.65457425 407.57678053 -198.09765625 389.46484375 C-199.0201969 388.35732497 -199.94203298 387.24921903 -200.86328125 386.140625 C-207.85053531 377.79499511 -215.29064332 370.04520147 -223.09765625 362.46484375 C-221.34765625 357.58984375 -221.34765625 357.58984375 -219.09765625 356.46484375 C-217.33618164 357.1105957 -217.33618164 357.1105957 -215.1953125 358.203125 C-213.99962646 358.80664795 -213.99962646 358.80664795 -212.77978516 359.42236328 C-211.48306885 360.09307861 -211.48306885 360.09307861 -210.16015625 360.77734375 C-209.25700684 361.23737793 -208.35385742 361.69741211 -207.42333984 362.17138672 C-204.64279096 363.59246989 -201.86915141 365.02619356 -199.09765625 366.46484375 C-198.33211426 366.8613916 -197.56657227 367.25793945 -196.77783203 367.66650391 C-192.14965643 370.07041383 -187.54180302 372.51124811 -182.93798828 374.96142578 C-180.30766143 376.35368578 -177.6708831 377.73304262 -175.03182983 379.1086731 C-158.12244306 387.93151871 -141.66274747 397.273347 -125.47314453 407.36181641 C-123.15317297 408.80722614 -120.8296385 410.24458026 -118.49951172 411.67333984 C-106.76685233 418.89670231 -95.37442419 426.60832233 -83.97265625 434.33984375 C-82.02491684 435.65781408 -80.07700112 436.97552389 -78.12890625 438.29296875 C-75.39300304 440.14327962 -72.65734704 441.99394308 -69.92306519 443.84664917 C-65.65879393 446.73602733 -61.38847221 449.61501885 -57.09765625 452.46484375 C-57.57311832 445.72233033 -58.62256187 439.4902188 -60.59765625 433.02734375 C-60.85901367 432.17188965 -61.12037109 431.31643555 -61.38964844 430.43505859 C-66.19607381 415.36036085 -73.1836273 401.78712445 -83.09765625 389.46484375 C-83.57638184 388.86800781 -84.05510742 388.27117188 -84.54833984 387.65625 C-92.8414153 377.43109603 -101.82967315 368.66961339 -112.48046875 360.875 C-113.01414062 360.40964844 -113.5478125 359.94429687 -114.09765625 359.46484375 C-114.09765625 358.80484375 -114.09765625 358.14484375 -114.09765625 357.46484375 C-56.65362627 366.19633631 -3.7569751 387.5433098 45.90234375 417.46484375 C45.4618534 415.72596646 45.01210944 413.98943196 44.55859375 412.25390625 C44.30916016 411.28662598 44.05972656 410.3193457 43.80273438 409.32275391 C36.7619298 386.97469035 0.64717669 371.85035149 -18.078125 360.703125 C-18.76189713 360.29544891 -19.44566925 359.88777283 -20.15016174 359.46774292 C-23.56550624 357.43176937 -26.98396996 355.40143578 -30.40844727 353.38085938 C-31.66434084 352.63430899 -32.92012413 351.88757302 -34.17578125 351.140625 C-35.2937207 350.47973877 -36.41166016 349.81885254 -37.56347656 349.13793945 C-40.09765625 347.46484375 -40.09765625 347.46484375 -41.09765625 345.46484375 C-38.84125617 344.33664371 -37.25307773 344.19709245 -34.74438477 343.97167969 C-33.83513245 343.88757843 -32.92588013 343.80347717 -31.98907471 343.71682739 C-30.99494568 343.62851654 -30.00081665 343.54020569 -28.9765625 343.44921875 C-26.83955624 343.25128153 -24.70259513 343.05285625 -22.56567383 342.85400391 C-21.43900299 342.75017395 -20.31233215 342.64634399 -19.15151978 342.53936768 C25.52829565 338.38635725 70.88791089 333.27061689 112.90234375 316.46484375 C78.91234375 316.13484375 44.92234375 315.80484375 9.90234375 315.46484375 C9.24234375 313.15484375 8.58234375 310.84484375 7.90234375 308.46484375 C8.72734375 308.20380859 9.55234375 307.94277344 10.40234375 307.67382812 C32.78172768 300.59328749 32.78172768 300.59328749 53.90234375 290.46484375 C54.93359375 289.91570312 55.96484375 289.3665625 57.02734375 288.80078125 C90.05508653 270.65272467 110.18406089 239.45790144 121.90234375 204.46484375 C122.18480957 203.62211914 122.46727539 202.77939453 122.75830078 201.91113281 C123.47578693 199.76328709 124.19051969 197.61457142 124.90234375 195.46484375 C114.73996319 201.73919316 104.70593027 208.17191132 94.78738403 214.82489014 C92.65869264 216.25250161 90.52773053 217.67666897 88.39624023 219.10009766 C81.97782302 223.38807683 75.56742251 227.68767893 69.16796875 232.00390625 C68.18981201 232.66165039 67.21165527 233.31939453 66.20385742 233.99707031 C64.4226217 235.19546297 62.64398661 236.39773331 60.8684082 237.60449219 C60.097146 238.12301758 59.32588379 238.64154297 58.53125 239.17578125 C57.8719751 239.62228027 57.2127002 240.0687793 56.53344727 240.52880859 C54.90234375 241.46484375 54.90234375 241.46484375 52.90234375 241.46484375 C54.39977893 238.20668807 56.28663573 235.24905346 58.22729492 232.23950195 C81.95575069 195.28549564 89.62693648 152.73463273 81.90234375 109.46484375 C81.57234375 108.47484375 81.24234375 107.48484375 80.90234375 106.46484375 C80.50966309 107.1697998 80.11698242 107.87475586 79.71240234 108.60107422 C77.90238108 111.84826195 76.08987798 115.0940581 74.27734375 118.33984375 C73.35115234 120.00273438 73.35115234 120.00273438 72.40625 121.69921875 C68.68450279 128.35918743 64.87633957 134.95205969 60.90234375 141.46484375 C60.24234375 141.13484375 59.58234375 140.80484375 58.90234375 140.46484375 C59.2271875 138.66853516 59.2271875 138.66853516 59.55859375 136.8359375 C64.8271111 106.58414838 59.91659458 79.77916559 42.45996094 54.29248047 C33.0049002 40.88854143 21.90138852 29.28818762 10.33984375 17.71484375 C9.75114502 17.12505737 9.16244629 16.535271 8.5559082 15.9276123 C6.86117962 14.23323772 5.16213603 12.54334511 3.4609375 10.85546875 C2.68815712 10.08450867 2.68815712 10.08450867 1.89976501 9.29797363 C-0.34685251 7.0806244 -2.46001468 5.22327146 -5.09765625 3.46484375 C-4.76765625 2.47484375 -4.43765625 1.48484375 -4.09765625 0.46484375 C-2.09765625 -0.53515625 -2.09765625 -0.53515625 0 0 Z " fill="#000000" transform="translate(1462.09765625,1745.53515625)"/>
<path d="M0 0 C3.87160946 0.00322077 7.74249456 -0.02064229 11.61401367 -0.0456543 C14.10945543 -0.04792256 16.60489921 -0.04863299 19.1003418 -0.04760742 C20.24100601 -0.05681717 21.38167023 -0.06602692 22.55690002 -0.07551575 C28.89790833 -0.03882926 35.06424186 0.21727867 40.75268555 3.31567383 C41.41268555 4.30567383 42.07268555 5.29567383 42.75268555 6.31567383 C36.81016926 8.67487505 30.79057545 10.53105037 24.65405273 12.32080078 C0.13666403 19.47300518 -23.26933409 28.07798077 -46.24731445 39.31567383 C-47.05104492 39.70722656 -47.85477539 40.0987793 -48.68286133 40.50219727 C-71.1542204 51.57864662 -93.70082768 65.90181158 -111.9465332 83.15551758 C-113.93321465 85.02077197 -115.95869699 86.80482968 -118.02075195 88.58520508 C-128.68907953 97.88760992 -138.6286847 108.08759735 -147.24731445 119.31567383 C-148.24898577 120.57813329 -149.25166667 121.8397921 -150.25512695 123.10083008 C-191.77440743 175.74456657 -216.23036585 242.70600727 -208.66137695 310.07202148 C-203.17866071 353.02212052 -184.82841465 392.20848558 -157.24731445 425.31567383 C-156.80661621 425.84660645 -156.36591797 426.37753906 -155.91186523 426.92456055 C-146.7901715 437.87491757 -137.21616316 448.17195481 -126.24731445 457.31567383 C-125.73700684 457.75041016 -125.22669922 458.18514648 -124.70092773 458.63305664 C-102.6240392 477.40308261 -77.77232452 492.70408222 -52.24731445 506.31567383 C-51.44970703 506.74315918 -50.65209961 507.17064453 -49.83032227 507.61108398 C20.38068358 544.89945564 99.57452172 559.41062394 177.99487305 566.20629883 C179.44298182 566.33183797 179.44298182 566.33183797 180.92034531 566.45991325 C200.57518152 568.13803131 220.25282892 569.28134406 239.94799805 570.35083008 C240.71576789 570.39261186 241.48353773 570.43439365 242.27457333 570.47744155 C255.77351391 571.21144393 269.27335806 571.92857735 282.77380371 572.63433838 C291.59580456 573.09554246 300.41747765 573.56166357 309.23836124 574.04382604 C313.72269039 574.28841582 318.20738819 574.52278017 322.69268823 574.74883091 C326.12481771 574.92476178 329.55608772 575.11569403 332.98754883 575.30419922 C334.79838959 575.39080307 334.79838959 575.39080307 336.64581299 575.47915649 C344.49186754 575.92916004 352.25886832 576.82735776 359.75268555 579.31567383 C360.08268555 579.97567383 360.41268555 580.63567383 360.75268555 581.31567383 C325.52862064 586.16247478 290.26849954 590.72203126 255.00268555 595.25317383 C253.25784567 595.47736307 253.25784567 595.47736307 251.4777565 595.70608139 C236.90306016 597.57849927 222.32802632 599.4482793 207.75268555 601.31567383 C208.64201782 601.77417725 209.5313501 602.23268066 210.44763184 602.70507812 C213.7904502 604.42863392 217.13299531 606.15271908 220.47546387 607.87695312 C221.91403029 608.61895647 223.35266787 609.36082185 224.79138184 610.10253906 C232.62815755 614.14284443 240.46164069 618.18760575 248.25268555 622.31567383 C253.81046501 625.25853348 259.38755576 628.15995168 264.98706055 631.02270508 C280.78668333 639.10597288 296.40355271 647.39598751 311.75268555 656.31567383 C312.6840332 656.85289062 313.61538086 657.39010742 314.57495117 657.94360352 C339.43120977 672.29685771 363.35399441 688.1026594 384.75268555 707.31567383 C385.28474609 707.79133789 385.81680664 708.26700195 386.36499023 708.75708008 C396.65268678 717.98269922 406.15652122 727.46774179 414.75268555 738.31567383 C416.08573809 739.98256509 417.41898675 741.6492996 418.75268555 743.31567383 C414.98615336 743.31567383 413.99850149 742.29891844 411.00268555 740.06567383 C410.0178418 739.33219727 409.03299805 738.5987207 408.01831055 737.84301758 C405.16268982 735.65619502 402.37300119 733.3942875 399.58618164 731.12084961 C373.05515084 709.52155237 343.08482959 692.52498914 310.75268555 681.31567383 C309.95797852 681.03884766 309.16327148 680.76202148 308.34448242 680.47680664 C299.51890465 677.44598478 290.61906573 674.93452673 281.51831055 672.87426758 C280.091054 672.55090424 280.091054 672.55090424 278.63496399 672.2210083 C269.40059846 670.17081678 260.11092322 668.5684463 250.77923584 667.03521729 C184.32380021 656.0443183 121.29840485 638.13306633 60.75268555 608.31567383 C61.85489464 611.62230111 63.3682113 613.94151946 65.2956543 616.84692383 C65.65567032 617.39047516 66.01568634 617.93402649 66.38661194 618.49404907 C67.56653073 620.2710426 68.75259862 622.04379699 69.94018555 623.81567383 C70.34595825 624.42247986 70.75173096 625.02928589 71.1697998 625.65447998 C84.45761657 645.49987813 98.6524244 664.57598199 114.81518555 682.19458008 C116.64904739 684.20221512 118.4227683 686.2495958 120.19018555 688.31567383 C124.46303796 693.22596809 129.11925056 697.74928212 133.75268555 702.31567383 C136.49291359 705.04246938 139.21472547 707.78549811 141.91674805 710.55004883 C148.15569644 716.90306956 154.3742016 722.92185256 161.44799805 728.35083008 C163.91988643 730.45821967 165.80393521 732.72482373 167.75268555 735.31567383 C159.41238481 734.00819104 151.70488256 731.37976719 143.81518555 728.44067383 C143.16539734 728.20057587 142.51560913 727.96047791 141.84613037 727.71310425 C95.67952152 710.60517799 52.22975978 686.69746572 12.75268555 657.31567383 C11.65649923 656.50685254 10.56015855 655.6982404 9.46362305 654.88989258 C-10.24973543 640.2479126 -29.34336965 624.70334587 -47.33325195 607.98364258 C-49.51197668 605.98891203 -51.70844793 604.03814663 -53.93969727 602.10400391 C-58.06734008 598.49646535 -62.09382166 594.79378324 -66.08325195 591.03442383 C-67.1737233 590.00702087 -67.1737233 590.00702087 -68.28622437 588.9588623 C-76.1672207 581.49671568 -83.86255449 573.85168654 -91.52612305 566.16723633 C-93.9020812 563.78583894 -96.28344777 561.4099414 -98.6652832 559.03442383 C-100.20596907 557.49307824 -101.74634529 555.95142306 -103.28637695 554.40942383 C-103.98437408 553.71345093 -104.68237122 553.01747803 -105.40151978 552.30041504 C-109.34273655 548.3405263 -113.10616019 544.28044791 -116.74378967 540.03938293 C-118.7426396 537.74781058 -120.88000028 535.62190739 -123.05981445 533.50317383 C-125.48289675 531.14682013 -127.36374212 529.14103233 -129.24731445 526.31567383 C-130.02518163 544.59555251 -127.02277489 560.6952498 -119.24731445 577.31567383 C-118.9529248 577.94699219 -118.65853516 578.57831055 -118.35522461 579.22875977 C-108.59285344 599.69445354 -94.56793465 618.08053397 -81.50561523 636.52001953 C-80.39654214 638.10271891 -79.31933346 639.70764531 -78.24731445 641.31567383 C-78.57731445 642.30567383 -78.90731445 643.29567383 -79.24731445 644.31567383 C-79.87637695 643.74719727 -80.50543945 643.1787207 -81.15356445 642.59301758 C-85.16344095 638.97567417 -89.174768 635.36246121 -93.24731445 631.81567383 C-126.70177898 602.61784097 -126.70177898 602.61784097 -140.5246582 586.31567383 C-142.62103724 583.88178252 -144.81128826 581.54432958 -146.99731445 579.19067383 C-152.29412072 573.38023787 -157.12844793 567.26798272 -161.91674805 561.03588867 C-163.15388581 559.43646249 -164.41265761 557.85383435 -165.6730957 556.27270508 C-196.04915103 517.84276929 -216.41302062 473.38554358 -229.24731445 426.31567383 C-249.39262913 468.64903396 -255.94281767 514.1655995 -261.24731445 560.31567383 C-261.90731445 560.31567383 -262.56731445 560.31567383 -263.24731445 560.31567383 C-283.17665084 522.57449305 -287.39985408 476.7198718 -290.99731445 434.75317383 C-291.05648041 434.06439148 -291.11564636 433.37560913 -291.17660522 432.66595459 C-291.57971721 427.8854276 -291.92851798 423.10251912 -292.24731445 418.31567383 C-292.31989975 417.26026398 -292.31989975 417.26026398 -292.39395142 416.18353271 C-293.41848497 400.78267389 -293.43483741 385.36705329 -293.43261719 369.93920898 C-293.43253653 367.04493885 -293.43939889 364.15082906 -293.453125 361.2565918 C-293.58254346 333.46379199 -292.2393823 305.95023115 -289.12231445 278.31567383 C-288.9380472 276.63085152 -288.75445596 274.94595514 -288.5715332 273.26098633 C-288.13777346 269.27833324 -287.69538025 265.29674167 -287.24731445 261.31567383 C-294.19095808 268.11306057 -294.19095808 268.11306057 -300.55981445 275.44067383 C-305.42935134 281.54438645 -305.42935134 281.54438645 -307.91918945 284.50708008 C-332.93633309 314.56720523 -352.30946237 350.14511731 -365.17749023 386.99975586 C-365.55502441 388.07596191 -365.93255859 389.15216797 -366.3215332 390.26098633 C-366.64726318 391.21505371 -366.97299316 392.16912109 -367.30859375 393.15209961 C-368.24731445 395.31567383 -368.24731445 395.31567383 -370.24731445 396.31567383 C-370.94954295 342.13064257 -363.65705567 288.34289875 -339.24731445 239.31567383 C-338.85576172 238.52161133 -338.46420898 237.72754883 -338.06079102 236.90942383 C-320.42992131 201.4487866 -294.218097 167.13914783 -263.0012207 142.51098633 C-260.51509564 140.52913912 -258.11142759 138.47471824 -255.71508789 136.38598633 C-247.66627221 129.39817333 -239.02916293 123.34202015 -230.24731445 117.31567383 C-242.02376856 117.84114572 -253.5387973 119.15527424 -265.18481445 120.94067383 C-266.04870789 121.07194672 -266.91260132 121.2032196 -267.80267334 121.33847046 C-315.68935995 128.66334246 -367.01098427 139.96579772 -407.24731445 168.31567383 C-407.90731445 167.98567383 -408.56731445 167.65567383 -409.24731445 167.31567383 C-403.67210817 160.32257557 -397.88233118 153.64035443 -391.80200195 147.08911133 C-389.73480205 144.84490348 -387.72696366 142.57381524 -385.74731445 140.25317383 C-378.00101435 131.36337228 -369.49351276 123.61003596 -360.24731445 116.31567383 C-359.30500977 115.53321289 -358.36270508 114.75075195 -357.3918457 113.94458008 C-291.94154126 60.08922574 -204.5091716 30.9771195 -67.74731445 4.06567383 C-66.56991699 3.91445068 -65.39251953 3.76322754 -64.17944336 3.60742188 C-42.81825763 1.03355741 -21.51067291 -0.03746779 0 0 Z " fill="#000000" transform="translate(1048.247314453125,1047.684326171875)"/>
<path d="M0 0 C-1.40478952 3.64706564 -3.00810172 7.12721478 -4.7578125 10.62109375 C-25.01136174 51.50337003 -36.21564255 94.92512981 -36.25 140.6875 C-36.25067474 141.50058624 -36.25134949 142.31367249 -36.25204468 143.15139771 C-36.19164662 189.23398805 -24.66215911 233.39978004 4 270 C4.06469482 269.21689453 4.12938965 268.43378906 4.19604492 267.62695312 C8.49103348 217.10461567 23.14775114 170.83731058 62 136 C66.54187244 132.17066385 71.25571847 128.5730129 76 125 C76.5475293 124.58105469 77.09505859 124.16210938 77.65917969 123.73046875 C85.12220587 118.04177366 92.9357387 113.12813733 101.0625 108.4375 C101.96750244 107.9122876 102.87250488 107.3870752 103.80493164 106.84594727 C104.66465576 106.35924561 105.52437988 105.87254395 106.41015625 105.37109375 C107.17465088 104.93724365 107.93914551 104.50339355 108.72680664 104.05639648 C111.14799702 102.93122295 113.37109809 102.41789825 116 102 C115.28457031 102.71414063 114.56914063 103.42828125 113.83203125 104.1640625 C112.00990944 105.98554339 110.19636133 107.81444996 108.38671875 109.6484375 C100.22072785 117.8971519 100.22072785 117.8971519 96 121.5 C88.04206417 128.31408468 80.68352515 135.93926361 74 144 C73.56574707 144.5151416 73.13149414 145.0302832 72.68408203 145.56103516 C65.1497407 154.53024937 58.54033226 163.66872744 53 174 C52.46632813 174.99338379 52.46632813 174.99338379 51.921875 176.00683594 C36.87955556 204.57906769 34.74056845 237.79614183 44.1875 268.5625 C52.86625336 293.0397026 68.71450957 312.91219055 87 331 C86.855625 330.00871094 86.71125 329.01742188 86.5625 327.99609375 C83.13670373 301.52983995 82.92906834 273.04036196 89 247 C89.20367188 246.11328613 89.40734375 245.22657227 89.6171875 244.31298828 C93.76735022 226.91496818 100.07335701 208.95189541 110 194 C111.60650455 197.21300909 110.05640391 200.29444587 109.1875 203.625 C100.33697146 239.71261122 105.60350507 275.86573967 122 309 C122.33290039 309.67289063 122.66580078 310.34578125 123.00878906 311.0390625 C128.59847165 322.18564362 135.25185515 332.40425665 142.75390625 342.36328125 C143.16483521 342.90940063 143.57576416 343.45552002 143.99914551 344.01818848 C144.9985488 345.34612289 145.99914734 346.67315762 147 348 C147.36125977 347.10095947 147.72251953 346.20191895 148.09472656 345.27563477 C160.66049947 314.07518535 173.52059181 282.97371716 194 256 C194.66515625 255.12214844 195.3303125 254.24429688 196.015625 253.33984375 C208.62498016 237.16808947 223.04130484 223.4922492 240 212 C240.33 212.66 240.66 213.32 241 214 C240.07885742 215.99267578 240.07885742 215.99267578 238.60546875 218.4453125 C238.06704346 219.34926758 237.52861816 220.25322266 236.97387695 221.18457031 C236.38437256 222.15491211 235.79486816 223.12525391 235.1875 224.125 C234.59090576 225.12112305 233.99431152 226.11724609 233.37963867 227.14355469 C229.92575426 232.88970941 226.39758616 238.58508323 222.8125 244.25 C204.83280267 272.72603165 189.18137566 304.68874165 188 339 C187.96003906 340.04671875 187.92007813 341.0934375 187.87890625 342.171875 C187.41410643 366.34146579 193.25391363 389.43415183 204 411 C204.56976562 412.18851563 205.13953125 413.37703125 205.7265625 414.6015625 C219.05511851 441.08252621 238.09675653 467.06875054 258.59960938 488.53222656 C259.53587761 489.51354536 260.46686354 490.49993031 261.39257812 491.49121094 C276.0531387 507.16108687 293.30970025 517.85456739 312.49926758 527.18310547 C320.31123662 530.98602118 327.81607056 534.65827803 333.0625 541.8125 C335.33726589 549.54670404 334.3336101 555.34730078 330.64501953 562.40869141 C327.80987488 566.87473851 324.05327946 570.24485161 320.1875 573.8125 C304.72234402 588.72212356 297.49460592 605.01526306 296.92871094 626.73632812 C296.87727317 633.64687986 297.17655976 640.48966245 297.75 647.375 C297.83362793 648.39650146 297.91725586 649.41800293 298.00341797 650.47045898 C298.74184312 658.67581402 300.03477836 666.71041548 301.67871094 674.78076172 C302.65553002 679.63438923 303.20160886 684.04714242 303 689 C300.69 689.33 298.38 689.66 296 690 C293.74090806 684.21486488 291.89589648 678.42566846 290.2578125 672.4375 C289.88468178 671.08674881 289.88468178 671.08674881 289.50401306 669.70870972 C288.70547414 666.8072887 287.91419108 663.9039768 287.125 661 C286.8547702 660.00824768 286.58454041 659.01649536 286.30612183 657.99468994 C282.03978936 642.29510723 278.2928782 626.64568186 275.38964844 610.63378906 C274.95749727 608.25532809 274.52153339 605.87755674 274.08178711 603.50048828 C273.66634335 601.24333306 273.26261296 598.98397513 272.87329102 596.72216797 C271.40379807 588.66251059 269.04089936 582.55316917 264 576 C264 575.34 264 574.68 264 574 C250.13785861 581.7055195 250.13785861 581.7055195 239.75 593.4375 C239.1725 594.283125 238.595 595.12875 238 596 C237.01 596 236.02 596 235 596 C234.81937012 595.47156494 234.63874023 594.94312988 234.45263672 594.39868164 C229.04803182 576.68966217 229.04803182 576.68966217 216.5 563.9296875 C211.21879605 561.96573978 205.57859311 561.52495188 200 561 C199.14573915 558.43721746 198.79108996 556.55739171 198.5703125 553.91015625 C198.46009766 552.73356445 198.46009766 552.73356445 198.34765625 551.53320312 C198.19962937 549.8906242 198.05896047 548.247365 197.92578125 546.60351562 C197.4050793 540.70574422 197.4050793 540.70574422 194 536 C189.15063206 534.26808288 185.73546058 535.51402156 181.1484375 537.30859375 C179 538 179 538 175 538 C174.8141333 537.35039307 174.6282666 536.70078613 174.43676758 536.03149414 C173.57335652 533.03842451 172.69305925 530.05056753 171.8125 527.0625 C171.37454102 525.53012695 171.37454102 525.53012695 170.92773438 523.96679688 C169.18590652 518.10451604 167.15295242 512.96664573 163.9597168 507.73999023 C163 506 163 506 163 504 C157.40372648 502.7040339 157.40372648 502.7040339 152.25 504.5625 C149.81027809 507.20553207 147.87961545 509.93692297 146 513 C143.20174195 511.60087097 142.88246628 509.92861025 141.6171875 507.08984375 C141.17246094 506.10048828 140.72773437 505.11113281 140.26953125 504.09179688 C139.80933594 503.05087891 139.34914063 502.00996094 138.875 500.9375 C138.40707031 499.89271484 137.93914062 498.84792969 137.45703125 497.77148438 C136.29893437 495.18349237 135.1468866 492.59297475 134 490 C131.8380401 489.77490308 131.8380401 489.77490308 130.1953125 491.65234375 C124.72329995 497.69220666 120.02560944 503.65274893 119.5 512.0625 C120.77432351 522.09779764 127.18153448 527.62786438 134.1875 534.3125 C141.34021996 541.19109159 147.83025906 548.2293722 154 556 C155.52130489 557.82230825 157.04344184 559.64392219 158.56640625 561.46484375 C163.04299736 566.94184468 167.04306885 572.66136308 170.9375 578.5625 C171.97825684 580.13656616 171.97825684 580.13656616 173.04003906 581.74243164 C181.47570906 594.62873285 188.49287992 607.83108674 195.0625 621.75 C202.08662201 636.60372697 210.62755731 649.30030311 221 662 C221.86262451 663.05985107 221.86262451 663.05985107 222.74267578 664.14111328 C233.45593436 677.98384045 233.45593436 677.98384045 245.8125 690.25 C254.15865107 697.35789744 260.64191456 706.72883026 267.25390625 715.41015625 C269.78529769 718.73045615 272.35411102 722.02055916 274.92626953 725.30932617 C281.12635555 733.24120777 287.2194959 741.24555932 293.24169922 749.31323242 C297.8884271 755.5343174 302.59208149 761.70971425 307.3125 767.875 C312.50380289 774.66700095 317.59749769 781.50686772 322.51953125 788.49609375 C324.34664506 791.0899228 326.20321354 793.66030512 328.07421875 796.22265625 C335.67031878 806.63359502 342.93095114 817.22447687 350 828 C349.01 828 348.02 828 347 828 C345.08437025 826.02659729 343.35748222 824.06321749 341.625 821.9375 C340.54488773 820.64401586 339.4641371 819.35106457 338.3828125 818.05859375 C337.5460498 817.05094971 337.5460498 817.05094971 336.69238281 816.02294922 C334.00508731 812.81075496 331.25179408 809.65692047 328.5 806.5 C324.75632375 802.19189428 321.03024394 797.86985408 317.32739258 793.52661133 C313.22714314 788.71798681 309.08982759 783.966074 304.8125 779.3125 C301.51129419 775.72032252 298.37277707 772.04949941 295.3125 768.25 C292.27068057 764.48113761 289.12869506 761.0105222 285.65234375 757.64453125 C283.99154399 755.99158397 282.46377609 754.27748362 280.9375 752.5 C272.98653496 743.32988699 264.74209275 734.47480945 255.8125 726.25 C248.67690927 719.66881491 241.74601908 712.89371961 234.86752319 706.04577637 C233.68158737 704.86591589 232.49383478 703.6878782 231.30410767 702.51184082 C224.04210136 695.3280864 217.3562536 688.00661741 211 680 C210.04231625 678.87425644 209.07749186 677.75449458 208.1015625 676.64453125 C197.6809346 664.72819808 189.44099194 651.9405059 181.625 638.1875 C168.84080972 615.71258979 153.85406573 595.67968727 136 577 C135.29359375 576.25234375 134.5871875 575.5046875 133.859375 574.734375 C128.63112561 569.33610124 122.85997263 564.69113712 117 560 C114.93333628 558.31753203 112.87315446 556.6273426 110.8125 554.9375 C109.89082031 554.18339844 108.96914062 553.42929688 108.01953125 552.65234375 C107.35308594 552.10707031 106.68664063 551.56179688 106 551 C102.98962311 554.01037689 104.0196955 562.02150961 104 566 C105.40714799 580.95306662 112.77228536 594.71181534 121.62890625 606.58203125 C123 609 123 609 122.88671875 611.109375 C121.90023698 613.21271058 120.80024852 614.70745462 119.25 616.4375 C118.71375 617.04078125 118.1775 617.6440625 117.625 618.265625 C116.2073202 619.77872555 114.73292118 621.23828157 113.25 622.6875 C110.43369032 625.5820405 109.08838537 627.32067788 108.875 631.375 C111.02556116 636.39297603 115.95978103 639.08088969 120.80615234 641.26416016 C123.9338992 642.45431104 127.07870494 643.55645293 130.25 644.625 C131.83361328 645.17800781 131.83361328 645.17800781 133.44921875 645.7421875 C137.76313512 647.24176186 142.08316814 648.70837554 146.43554688 650.09277344 C147.52416016 650.44114258 148.61277344 650.78951172 149.734375 651.1484375 C150.72147461 651.45700684 151.70857422 651.76557617 152.72558594 652.08349609 C155 653 155 653 156 655 C122.56649618 670.83269291 80.46737736 660.59099293 47.34765625 648.81079102 C38.00856141 645.36718568 28.98428574 641.27251916 20 637 C19.19095215 636.62004883 18.3819043 636.24009766 17.54833984 635.84863281 C-7.5387208 624.00461177 -30.85527078 608.9559926 -52 591 C-53.01449219 590.16984375 -54.02898437 589.3396875 -55.07421875 588.484375 C-69.57812798 576.50241897 -83.72789698 563.10720934 -95 548 C-95.61230469 547.19691406 -96.22460938 546.39382813 -96.85546875 545.56640625 C-98.25260111 543.72168 -99.63482462 541.8684165 -101 540 C-100.67 539.34 -100.34 538.68 -100 538 C-99.37770508 538.41660889 -98.75541016 538.83321777 -98.11425781 539.26245117 C-90.75182707 544.18852525 -83.37954831 549.0996232 -76 554 C-75.06220703 554.62326172 -74.12441406 555.24652344 -73.15820312 555.88867188 C-63.09513504 562.56019595 -52.98718405 569.01298706 -42.34887695 574.73608398 C-40.48845713 575.73716427 -38.63410806 576.74952556 -36.78198242 577.76586914 C-27.35912509 582.90340507 -17.7342355 587.43810766 -7.9375 591.8125 C-5.74552956 592.79647701 -3.55423434 593.78193328 -1.36341858 594.76847839 C-0.01855089 595.37355228 1.32706755 595.97696164 2.67359924 596.57832336 C6.49893638 598.29313401 10.26332026 600.09993868 14 602 C14.95816716 599.44393194 15.08781858 598.25880872 14.19807434 595.63665771 C13.76379623 594.76366028 13.32951813 593.89066284 12.88208008 592.99121094 C12.39439651 591.99627625 11.90671295 591.00134155 11.4042511 589.97625732 C10.86479355 588.90643616 10.325336 587.83661499 9.76953125 586.734375 C9.22270187 585.62700989 8.6758725 584.51964478 8.11247253 583.37872314 C6.65439565 580.43147832 5.18612439 577.48961506 3.71276855 574.54998779 C2.22891149 571.58317908 0.75876969 568.60959162 -0.71289062 565.63671875 C-2.88037201 561.26328329 -5.05335803 556.89270278 -7.23510742 552.52636719 C-7.70572601 551.5790271 -8.1763446 550.63168701 -8.66122437 549.65563965 C-9.51689525 547.95830256 -10.39151155 546.27029958 -11.29019165 544.59533691 C-12.2631731 542.76562472 -13.14209285 540.88640794 -14 539 C-13.67 538.01 -13.34 537.02 -13 536 C-10.9375 535.3125 -10.9375 535.3125 -9 535 C-3.30427714 543.01506226 2.36862828 551.04072922 7.88500977 559.18066406 C23.10539251 581.62814012 37.04025731 598.70821191 61 612 C61.07130127 611.00033203 61.07130127 611.00033203 61.14404297 609.98046875 C61.76124242 602.25534651 63.09111841 594.82021615 64.71484375 587.25 C65.85611646 581.46974112 66.01166819 576.46080478 65.31103516 570.61181641 C65.02665314 568.22381104 64.87196972 565.88263847 64.7890625 563.48046875 C64.11638645 545.31406319 61.30537744 527.44543405 48 514 C39.60426984 506.85944545 30.15644816 502.8389777 19.65209961 499.87451172 C5.37913552 495.84081939 -4.28553066 489.06497597 -15.33300781 479.44042969 C-18.12732239 477.02589307 -20.97036971 474.67037453 -23.8125 472.3125 C-25.30716797 471.06919922 -25.30716797 471.06919922 -26.83203125 469.80078125 C-27.54746094 469.20652344 -28.26289062 468.61226562 -29 468 C-27.54134905 463.38093867 -27.54134905 463.38093867 -25.16430664 461.70825195 C-23 461 -23 461 -21.10327148 461.69995117 C-20.44915283 462.14314697 -19.79503418 462.58634277 -19.12109375 463.04296875 C-18.3741626 463.53466553 -17.62723145 464.0263623 -16.85766602 464.53295898 C-16.05901123 465.07895752 -15.26035645 465.62495605 -14.4375 466.1875 C-12.72846079 467.31018673 -11.01746605 468.42990134 -9.3046875 469.546875 C-7.98936035 470.41022461 -7.98936035 470.41022461 -6.64746094 471.29101562 C13.25695757 484.72465322 13.25695757 484.72465322 36.0625 490.125 C37.34833984 490.12886719 37.34833984 490.12886719 38.66015625 490.1328125 C41.15564201 490.09365135 41.15564201 490.09365135 44 489 C45.96554723 477.74277497 42.29188324 470.28285236 36 461 C27.15460913 448.61128004 11.80981603 437.61448407 -3 434 C-6.02433239 433.62377042 -9.01736152 433.54532121 -12.0625 433.5 C-47.22839568 432.183648 -70.3879952 413.62468526 -95 390 C-95.55268555 389.47067871 -96.10537109 388.94135742 -96.67480469 388.39599609 C-104.81072571 380.56782288 -104.81072571 380.56782288 -106 377 C-98.66025487 379.24072046 -91.80850575 382.24061594 -84.83920288 385.44076538 C-55.28167689 399.99227643 -55.28167689 399.99227643 -23.35546875 398.98828125 C-19.90591028 397.54095407 -18.2394988 395.9859984 -16 393 C-12.83318814 383.49956441 -15.10046987 372.93118191 -19 364 C-23.70221659 355.02124115 -29.8574137 347.1663553 -37 340 C-38.17755859 338.78763672 -38.17755859 338.78763672 -39.37890625 337.55078125 C-63.37092064 314.21808939 -98.74139325 304.37991201 -131 300 C-131.67514648 299.8983252 -132.35029297 299.79665039 -133.04589844 299.69189453 C-154.33341723 296.82803409 -177.99287561 297.95519585 -199 302 C-200.4847583 302.28206299 -200.4847583 302.28206299 -201.99951172 302.56982422 C-229.19308094 307.91665928 -254.96417418 317.24587795 -280 329 C-280.92296875 329.42909668 -281.8459375 329.85819336 -282.796875 330.30029297 C-297.79210815 337.29224402 -312.5718546 344.73791179 -327.375 352.125 C-328.76883408 352.81983994 -328.76883408 352.81983994 -330.19082642 353.52871704 C-340.80663052 358.82507189 -351.38370678 364.17369024 -361.81771851 369.822052 C-365.80637445 371.95647888 -369.63443937 373.72221172 -374 375 C-367.38336641 350.51845571 -344.03216999 332.75868018 -323.16015625 320.41162109 C-262.82942905 285.92601564 -188.73204115 276.15795482 -120.20410156 274.2902832 C-114.41164537 274.13197945 -108.75093356 273.72256838 -103 273 C-103.54527344 272.40574219 -104.09054687 271.81148437 -104.65234375 271.19921875 C-108.646404 266.8091662 -112.53943997 262.38303692 -116.25 257.75 C-120.3488722 252.67657078 -124.73239988 247.93930819 -129.19995117 243.19458008 C-133.24225403 238.87826283 -136.99573491 234.39523766 -140.69140625 229.77734375 C-143.35281066 226.57555266 -146.15483446 223.53786954 -149 220.5 C-153.42420242 215.7702262 -157.60729642 210.9198384 -161.6640625 205.8671875 C-164.33875137 202.58420818 -167.10222634 199.38749861 -169.875 196.1875 C-175.29829659 189.89959505 -180.48091851 183.45410639 -185.55078125 176.87890625 C-187.08119722 174.89472813 -188.61886187 172.91627937 -190.15625 170.9375 C-197.72634825 161.15549243 -204.98448424 151.18667685 -212 141 C-212.42877441 140.37947754 -212.85754883 139.75895508 -213.29931641 139.11962891 C-225.62261403 121.20925683 -236.24642708 102.41712352 -246 83 C-246.41910645 82.17113281 -246.83821289 81.34226562 -247.27001953 80.48828125 C-253.53694291 68.01041188 -258.45633418 55.19594568 -263 42 C-262.34 41.67 -261.68 41.34 -261 41 C-260.69932617 41.48654053 -260.39865234 41.97308105 -260.08886719 42.47436523 C-253.23903967 53.52443657 -246.14620481 64.32159209 -238.53857422 74.86425781 C-236.96634508 77.04671742 -235.40621043 79.23744601 -233.84765625 81.4296875 C-219.30880288 101.81152654 -203.64990597 121.34842715 -187.38574219 140.37597656 C-185.94270908 142.06714221 -184.50625183 143.76374619 -183.0703125 145.4609375 C-176.7062304 152.96175917 -170.15608737 160.25292338 -163.44384766 167.44287109 C-162.04843924 168.94776032 -160.66794029 170.46471841 -159.29296875 171.98828125 C-153.66979552 178.20423409 -147.87337006 184.17485008 -141.9128418 190.06567383 C-138.96083224 192.99485962 -136.10745252 195.93165728 -133.4375 199.125 C-130.03233878 203.14309024 -126.15403994 206.61468735 -122.26074219 210.14575195 C-117.94158129 214.08037218 -113.79408611 218.1572498 -109.6875 222.3125 C-105.66087524 226.37824986 -101.62377499 230.33149072 -97.25390625 234.03125 C-93.92562325 236.93845041 -90.72166403 239.97562864 -87.5 243 C-82.41280619 247.76576723 -77.29931136 252.46994351 -72 257 C-70.81476363 258.02695086 -69.62990634 259.05433929 -68.4453125 260.08203125 C-67.15124526 261.20075638 -65.85697277 262.31924413 -64.5625 263.4375 C-63.93400146 263.98293457 -63.30550293 264.52836914 -62.65795898 265.09033203 C-60.14009539 267.76353939 -60.14009539 267.76353939 -57 269 C-57.16081055 268.35377686 -57.32162109 267.70755371 -57.48730469 267.04174805 C-63.45066509 242.82463504 -68.09487548 218.29308115 -68.203125 193.28125 C-68.21018463 192.1931604 -68.21724426 191.1050708 -68.22451782 189.98400879 C-68.45380141 144.27227296 -68.45380141 144.27227296 -65 125 C-64.79068848 123.82195801 -64.58137695 122.64391602 -64.36572266 121.43017578 C-61.54370717 106.00994819 -58.0514056 90.84807099 -53 76 C-52.76313477 75.30165039 -52.52626953 74.60330078 -52.28222656 73.88378906 C-45.84323523 55.22043011 -23.73394917 0 0 0 Z M128 402 C128.66518498 410.04348682 130.38173035 417.71974252 132.25 425.5625 C132.53746094 426.83802734 132.82492187 428.11355469 133.12109375 429.42773438 C135.99267028 441.62620279 135.99267028 441.62620279 144.328125 450.4765625 C145.62426292 451.21270301 146.93250258 451.92780784 148.25 452.625 C148.97453369 453.02976562 149.69906738 453.43453125 150.44555664 453.8515625 C152.06150112 454.75208261 153.68231659 455.64390075 155.30712891 456.52832031 C158.23316749 458.12742825 161.13890367 459.75977722 164.04296875 461.3984375 C169.34443682 464.38777564 174.65824127 467.35424857 179.9765625 470.31347656 C182.83272607 471.90669183 185.68300254 473.50987344 188.53125 475.1171875 C190.16666248 476.03646578 191.80207888 476.95573709 193.4375 477.875 C194.18249756 478.2978125 194.92749512 478.720625 195.69506836 479.15625 C199.13553043 481.26820645 199.13553043 481.26820645 203 482 C193.74497107 449.21961819 158.51970659 420.97462914 131.6015625 402.890625 C130.0141052 401.83799838 130.0141052 401.83799838 128 402 Z " fill="#000000" transform="translate(1232,665)"/>
<path d="M0 0 C-2.65751147 1.77167431 -5.24586883 3.18568885 -8.09375 4.6171875 C-28.10394489 14.77387733 -46.5182946 25.91284348 -64 40 C-64.57459961 40.45745605 -65.14919922 40.91491211 -65.74121094 41.38623047 C-74.09585278 48.08422118 -81.72269797 55.52159171 -89.3125 63.0625 C-90.23184326 63.97249756 -91.15118652 64.88249512 -92.09838867 65.82006836 C-98.15603114 71.90616845 -103.67362077 78.2683227 -109 85 C-109.82628906 86.01449219 -110.65257812 87.02898437 -111.50390625 88.07421875 C-122.79892271 102.41267417 -132.70570639 117.93743513 -142.16992188 133.53051758 C-143.08903531 135.03542399 -144.04050787 136.52051101 -145 138 C-145.33 138 -145.66 138 -146 138 C-146.92727684 133.96601083 -147.23128697 130.06478743 -147.4296875 125.93359375 C-147.50342708 124.54619841 -147.57766232 123.15882934 -147.65234375 121.77148438 C-147.76486335 119.61534588 -147.87399062 117.45924146 -147.97412109 115.30249023 C-148.02782521 99.39303774 -148.02782521 99.39303774 -154.5625 85.75 C-159.88306643 83.041348 -164.44474937 83.09214136 -170.1875 84.55859375 C-185.0567089 90.27121261 -196.41274025 103.91376599 -206 116 C-206.80695313 117.00160156 -207.61390625 118.00320313 -208.4453125 119.03515625 C-224.16907598 138.78113392 -240.27163746 163.47032196 -243 189 C-242.23333008 188.61142822 -241.46666016 188.22285645 -240.67675781 187.82250977 C-237.82323714 186.37867672 -234.9679134 184.93849147 -232.11132812 183.50073242 C-230.87687199 182.87848492 -229.64313864 182.25480132 -228.41015625 181.62963867 C-226.63473512 180.72975788 -224.85646053 179.83551384 -223.078125 178.94140625 C-221.47565918 178.13231812 -221.47565918 178.13231812 -219.84082031 177.30688477 C-217.51756749 176.23810062 -215.4952797 175.48694804 -213 175 C-212.82984375 175.76441406 -212.6596875 176.52882813 -212.484375 177.31640625 C-211.67752317 180.882863 -210.84272055 184.44184655 -210 188 C-209.85014648 188.64646484 -209.70029297 189.29292969 -209.54589844 189.95898438 C-207.72638514 197.72378635 -205.89194565 204.56322941 -201 211 C-196.85384427 213.07307786 -192.6263198 212.48813405 -188.33203125 211.19921875 C-181.42381107 208.48627398 -175.16676882 204.88225755 -168.90014648 200.94750977 C-164.18874316 198 -164.18874316 198 -162 198 C-162.15146484 198.65145996 -162.30292969 199.30291992 -162.45898438 199.97412109 C-171.01484527 237.70546766 -167.397457 272.73244518 -147 306 C-140.67366036 315.80204145 -133.69264206 325.2271767 -126 334 C-125.39285156 334.70253906 -124.78570313 335.40507813 -124.16015625 336.12890625 C-115.26890128 345.73446924 -102.34125144 353.92805311 -89.1875 355.4375 C-84.37714077 354.77725462 -81.29242736 353.25550086 -77.8125 349.875 C-73.83708279 343.5691658 -72.46466387 336.93839 -72.5625 329.5625 C-72.57059692 328.32294556 -72.57059692 328.32294556 -72.57885742 327.05834961 C-73.01288839 307.76370007 -76.20586449 288.22840378 -79.13598633 269.17797852 C-79.7075398 265.41902312 -80.15192333 261.80567953 -80 258 C-79.20335937 257.75765625 -78.40671875 257.5153125 -77.5859375 257.265625 C-68.79272356 254.48431645 -62.47440062 251.75540087 -57 244 C-53.3964123 233.53958571 -54.75836724 222.61878734 -56.28369141 211.87719727 C-57.1480904 205.56552713 -57.1959285 199.35679127 -57 193 C-54.10305154 191.35681418 -51.98539834 190.74696763 -48.6640625 190.69140625 C-47.84679688 190.66626953 -47.02953125 190.64113281 -46.1875 190.61523438 C-44.48705209 190.5802404 -42.78652358 190.54895538 -41.0859375 190.52148438 C-36.04247415 190.35891991 -32.30358818 189.92457463 -28 187 C-25.90676469 184.08660817 -25.65356116 181.27844131 -25.375 177.75 C-25.30023437 176.85796875 -25.22546875 175.9659375 -25.1484375 175.046875 C-25.09945313 174.37140625 -25.05046875 173.6959375 -25 173 C-11.83113851 179.4911081 1.19825954 186.25058351 14.22929382 193.01260376 C18.5799707 195.26856616 22.93828455 197.50918209 27.30078125 199.7421875 C75.51464692 224.44428777 126.21013243 251.02294269 160.6328125 294.140625 C163.05956176 297.07194589 165.62664641 299.80681107 168.25 302.5625 C172.50812145 307.18598288 176.0484954 311.9562494 178 318 C177.67 318.66 177.34 319.32 177 320 C172.56236797 316.21009687 168.2432104 312.30848324 163.98901367 308.31494141 C157.53224774 302.2580592 150.93082963 296.51465199 144 291 C142.85967685 290.06893203 141.72041261 289.13656613 140.58203125 288.203125 C102.96440622 257.49321686 59.41642127 235.18756036 10.55834961 230.59472656 C5.1773059 230.08865295 5.1773059 230.08865295 3 229 C2.93941406 230.07636719 2.87882812 231.15273437 2.81640625 232.26171875 C2.30701698 241.183718 1.72807052 250.09275423 1 259 C1.53367187 258.52949219 2.06734375 258.05898437 2.6171875 257.57421875 C9.26316385 252.02057415 15.70582057 248.55242698 24.5625 248.9375 C31.47492626 250.09771289 36.9817424 254.1472301 41.0625 259.75 C43.33419063 263.43298618 44.98969529 267.26707426 46.65380859 271.24584961 C50.08927761 279.44071274 54.01243976 286.18962676 59.49975586 293.17675781 C80.41810444 319.83552113 93.86958785 356.15483957 94.23828125 390.1015625 C94.24812042 390.85206879 94.25795959 391.60257507 94.26809692 392.37582397 C94.584242 422.75278233 90.72385275 450.41239443 75 477 C74.67 477 74.34 477 74 477 C73.61544498 469.16537632 74.76447606 462.07441645 76.4375 454.4375 C85.13630502 413.91617577 77.0952094 373.98746002 55 339 C47.44616268 327.60205018 38.8734825 317.05549503 29.6875 306.9375 C29.1836377 306.37667725 28.67977539 305.81585449 28.16064453 305.23803711 C25.67017494 302.53579855 23.52239872 300.21176537 20 299 C15.72275082 299 14.34199576 299.66577687 11.25 302.6875 C6.67298086 308.347747 6.2232224 315.53663166 6.28515625 322.53515625 C7.07431548 329.9178827 11.1205001 336.41004017 14.453125 342.9140625 C32.03546215 377.27255977 28.35465643 419.38400005 17 455 C12.9279411 467.23689963 8.29724689 479.24171714 3 491 C2.34 491 1.68 491 1 491 C1.20363159 489.97737061 1.20363159 489.97737061 1.41137695 488.93408203 C11.10525761 439.76317488 16.0411103 386.52901636 -13.24609375 342.52734375 C-13.82488281 341.69332031 -14.40367187 340.85929687 -15 340 C-24.45406594 340.4968942 -33.66048365 341.37779058 -43 343 C-52.64115757 369.86567622 -54.90129818 396.61819203 -46 424 C-45.69884277 424.94190186 -45.69884277 424.94190186 -45.39160156 425.90283203 C-41.87252867 436.70134307 -36.7851514 446.36891942 -31.04980469 456.14746094 C-29.96202216 458.06701764 -28.97029878 460.01883629 -28 462 C-30.90600261 463.25664978 -32.79604584 464 -36 464 C-38.79366547 458.58436214 -41.58521368 453.16763719 -44.375 447.75 C-44.78805389 446.947901 -45.20110779 446.145802 -45.62667847 445.31939697 C-50.71449501 435.43545297 -55.76445949 425.5361717 -60.70214844 415.57617188 C-64.65051804 407.6376141 -68.81005481 399.81313452 -73 392 C-74.32 392 -75.64 392 -77 392 C-76.74943848 392.81797058 -76.49887695 393.63594116 -76.24072266 394.47869873 C-73.88058044 402.18702489 -71.52578117 409.89695837 -69.17697144 417.60874557 C-67.9692336 421.57340477 -66.75943801 425.53741148 -65.54492188 429.5 C-64.37295926 433.32402039 -63.20642565 437.1496581 -62.04364014 440.97647858 C-61.5990297 442.43630145 -61.15246517 443.89553065 -60.70391846 445.35414886 C-60.07607687 447.39699756 -59.45521177 449.4418453 -58.8359375 451.48730469 C-58.48063965 452.65090515 -58.1253418 453.81450562 -57.75927734 455.0133667 C-57 458 -57 458 -57 462 C-81.71416346 452.46906258 -104.94880088 435.83755955 -126 420 C-126.59312988 419.55849609 -127.18625977 419.11699219 -127.79736328 418.66210938 C-150.89342566 401.45405603 -172.22856127 381.78460013 -189.64111328 358.79150391 C-190.54533972 357.5994066 -191.45516978 356.41153861 -192.37060547 355.22802734 C-209.37250858 333.24083067 -223.71627256 306.59512495 -232 280 C-232.33 280 -232.66 280 -233 280 C-238.00241164 312.28829331 -230.84244862 341.88417716 -211.58984375 368.3671875 C-209.14141911 371.64509838 -206.59044834 374.83367957 -204 378 C-203.36239746 378.78407227 -203.36239746 378.78407227 -202.71191406 379.58398438 C-192.65200024 391.8920505 -181.71592361 403.39572631 -170.41601562 414.56494141 C-166.96586438 417.98837215 -163.70249049 421.50961749 -160.5625 425.22265625 C-158.3120201 427.78257714 -155.8602736 430.11844129 -153.3828125 432.45703125 C-152 434 -152 434 -151 437 C-166.75130669 432.35919411 -180.31046548 416.60105244 -192.12109375 405.6328125 C-194.30365296 403.63682212 -196.50864609 401.6971905 -198.75 399.76953125 C-203.56174658 395.57353813 -208.06052628 391.08603145 -212.5625 386.5625 C-213.37396484 385.75490234 -214.18542969 384.94730469 -215.02148438 384.11523438 C-219.88838556 379.24047701 -224.55264793 374.26012774 -229 369 C-229.5168335 368.38987061 -230.03366699 367.77974121 -230.56616211 367.15112305 C-258.94884185 333.3214897 -284.43601269 291.42079802 -286 246 C-286.0515625 244.86433594 -286.103125 243.72867187 -286.15625 242.55859375 C-287.23295003 198.09985492 -266.98818395 158.54047726 -238 126 C-237.34999023 125.26386475 -236.69998047 124.52772949 -236.03027344 123.76928711 C-230.41841834 117.46244819 -224.59159292 111.40848012 -218.625 105.4375 C-217.75617188 104.55642578 -216.88734375 103.67535156 -215.9921875 102.76757812 C-209.9768113 96.7388542 -203.67052213 91.28842743 -197 86 C-195.63363728 84.88600185 -194.26771016 83.77146906 -192.90234375 82.65625 C-166.03573453 61.10902715 -135.81259862 44.14475724 -105.17773438 28.61669922 C-102.24999245 27.12718577 -99.33454184 25.616374 -96.421875 24.09765625 C-22.12641647 -14.3138793 -22.12641647 -14.3138793 0 0 Z " fill="#000000" transform="translate(1140,1079)"/>
<path d="M0 0 C49.12383775 2.15871098 97.17260272 8.48210357 145 20 C146.26263672 20.30099609 147.52527344 20.60199219 148.82617188 20.91210938 C201.4634461 33.64285429 252.35079656 54.56944028 299 82 C300.69789262 82.98441647 302.39580884 83.96879224 304.09375 84.953125 C328.92607178 99.47750726 352.36157525 116.39025268 374.47607422 134.76708984 C375.76012527 135.80593282 377.09594195 136.78031067 378.44140625 137.73828125 C378.95574219 138.15464844 379.47007812 138.57101562 380 139 C380 139.66 380 140.32 380 141 C372.48115083 138.82874483 365.09574098 136.352412 357.71484375 133.75390625 C355.96977539 133.14224861 355.96977539 133.14224861 354.18945312 132.51823425 C351.07752783 131.42658795 347.96637571 130.3327781 344.85569382 129.2375946 C342.93228531 128.56066473 341.00856502 127.88462829 339.08474731 127.2088623 C319.34101987 120.27271772 299.63248584 113.24572498 280 106 C279.67 106.33 279.34 106.66 279 107 C279.65742187 107.56654297 279.65742187 107.56654297 280.328125 108.14453125 C290.15536483 116.67345687 299.59786705 125.50218189 308.8125 134.6875 C309.61276611 135.48317383 310.41303223 136.27884766 311.23754883 137.09863281 C316.03114866 141.90471208 320.59107264 146.8404162 325 152 C325.98489586 153.12958788 326.97054296 154.2585213 327.95703125 155.38671875 C334.60074353 163.0443447 340.96091832 170.8550714 347 179 C347.50144531 179.67546875 348.00289062 180.3509375 348.51953125 181.046875 C396.2671349 245.63974028 424.49246294 318.94684368 440.72265625 397.11328125 C441.09209351 398.88312378 441.09209351 398.88312378 441.46899414 400.6887207 C441.97750207 403.85970602 442.09955853 406.79555483 442 410 C439.55778093 407.76304309 438.01938866 405.52060962 436.42578125 402.625 C435.93126465 401.73562744 435.43674805 400.84625488 434.92724609 399.92993164 C434.39437988 398.9630542 433.86151367 397.99617676 433.3125 397 C417.95289892 369.51821018 402.34579515 343.33713774 381 320 C380.08911758 318.98502623 379.178991 317.96937374 378.26953125 316.953125 C373.82208178 312.00595345 369.36378697 307.21705769 364.2578125 302.93359375 C361.09547445 300.22536307 358.0531217 297.39266402 355 294.5625 C354.41105957 294.01722656 353.82211914 293.47195313 353.21533203 292.91015625 C351.80940624 291.60765011 350.40458513 290.30395175 349 289 C349.16604736 289.86351074 349.33209473 290.72702148 349.50317383 291.61669922 C366.98145996 383.19734104 359.66084427 472.60573568 295.65234375 583.7109375 C287.14877987 596.10334019 278.25151079 608.12060528 268.35644531 619.4375 C266.94806303 621.0598266 265.56191483 622.69909843 264.1796875 624.34375 C253.54748839 636.9632259 242.20264311 648.87182081 230.5625 660.5625 C229.82950684 661.30016602 229.09651367 662.03783203 228.34130859 662.79785156 C224.30073424 666.82649599 220.16402436 670.67825439 215.84204102 674.40307617 C213.23152499 676.66621538 210.71562846 679.0201279 208.1875 681.375 C202.65062888 686.49312362 196.89468169 691.29729186 191 696 C190.07058594 696.74378906 189.14117188 697.48757813 188.18359375 698.25390625 C187.46300781 698.83011719 186.74242187 699.40632813 186 700 C185.34 699.67 184.68 699.34 184 699 C189.55367668 691.05600461 195.12457024 683.13534934 200.93847656 675.37890625 C207.34313475 666.81958309 213.43143526 658.07057366 219.375 649.1875 C219.93395966 648.35668915 219.93395966 648.35668915 220.50421143 647.50909424 C227.83796403 636.58937468 235.34676122 625.35084321 239.75 612.875 C240.17466553 611.69756226 240.17466553 611.69756226 240.60791016 610.49633789 C246.0773794 594.66555872 248.19246406 578.18611075 248.125 561.5 C248.12886719 560.51257812 248.13273437 559.52515625 248.13671875 558.5078125 C248.13542969 557.56679687 248.13414062 556.62578125 248.1328125 555.65625 C248.13112061 554.38491211 248.13112061 554.38491211 248.12939453 553.08789062 C248.1328687 550.93987712 248.1328687 550.93987712 247 549 C246.40481567 549.61089478 246.40481567 549.61089478 245.79760742 550.23413086 C237.8976703 558.314156 230.0379733 566.17801245 221 573 C220.05181396 573.72219727 220.05181396 573.72219727 219.08447266 574.45898438 C207.90505523 582.92752979 196.37661177 590.40265897 184 597 C183.15969238 597.45084961 182.31938477 597.90169922 181.45361328 598.36621094 C127.57049351 626.81714433 64.95961733 632.51321769 5 632 C5.33 631.34 5.66 630.68 6 630 C8.37152111 629.33257854 10.68393005 628.78905998 13.09375 628.30078125 C14.60190469 627.97924483 16.11004198 627.65762683 17.61816406 627.3359375 C18.81270203 627.08602051 18.81270203 627.08602051 20.03137207 626.83105469 C35.87357633 623.50327524 51.5185331 619.75789763 67 615 C67.97227539 614.70158203 68.94455078 614.40316406 69.94628906 614.09570312 C121.6076064 598.01422692 169.44247559 572.68804291 211 538 C211.96421875 537.22269531 212.9284375 536.44539063 213.921875 535.64453125 C222.36226028 528.7362465 230.09029451 521.12552019 237.8125 513.4375 C238.34820618 512.90697021 238.88391235 512.37644043 239.43585205 511.82983398 C246.43111946 504.88787151 252.86501437 497.72859239 259 490 C259.86326474 488.9723462 260.73167022 487.9489423 261.609375 486.93359375 C308.17805822 432.63178977 336.10870518 363.61736135 331.79785156 291.62402344 C327.96614982 244.32781066 309.03955159 197.70378824 279 161 C278.26394531 160.07316406 277.52789063 159.14632813 276.76953125 158.19140625 C263.27681837 141.35536628 248.00978549 125.28962608 231 112 C229.81073984 111.01409892 228.62477403 110.02421594 227.44140625 109.03125 C217.40839679 100.64739826 206.92336807 93.17636234 196 86 C195.13068848 85.42604492 194.26137695 84.85208984 193.36572266 84.26074219 C175.61944034 72.59310113 157.19816299 62.28377135 138.09179688 53.01708984 C136.62975231 52.3062031 135.17031508 51.5899401 133.71289062 50.86962891 C96.45619254 32.45963966 57.07142075 19.28193706 17.39453125 7.2043457 C16.31370773 6.87253296 15.23288422 6.54072021 14.11930847 6.19885254 C12.07146908 5.57059364 10.02165023 4.94874197 7.96968079 4.33410645 C7.06356552 4.05538696 6.15745026 3.77666748 5.22387695 3.48950195 C4.42867142 3.24891556 3.63346588 3.00832916 2.81416321 2.76045227 C1 2 1 2 0 0 Z " fill="#000000" transform="translate(1342,1665)"/>
<path d="M0 0 C4.46467421 5.48927656 7.37316692 12.47849374 10.5625 18.75 C23.34719437 43.44680768 38.94323457 64.8833578 56.60400391 86.30419922 C58.62238002 88.75604261 60.62173406 91.22330562 62.625 93.6875 C65.37478241 97.04946025 68.16234502 100.37455815 70.98144531 103.67822266 C77.19429183 110.96427637 83.19426002 118.38529373 89 126 C89.59425781 126.72703125 90.18851563 127.4540625 90.80078125 128.203125 C96.06846278 135.26626981 94.45192143 144.13751515 93.29125977 152.37719727 C92.33616505 158.68154062 91.26311654 164.96531952 90.1875 171.25 C89.82652829 173.40739407 89.46649603 175.56494554 89.10742188 177.72265625 C88.24799671 182.87144561 87.3685692 188.01656674 86.48284912 193.16088867 C86.02184255 195.8715677 85.57779736 198.58445147 85.13916016 201.29882812 C84.8806001 202.86068805 84.62197829 204.42253776 84.36328125 205.984375 C84.25308151 206.69168762 84.14288177 207.39900024 84.02934265 208.12774658 C83.75314196 209.76453946 83.38595143 211.38555916 83 213 C82.34 213.33 81.68 213.66 81 214 C80.00035249 209.62236427 79.00350846 205.24410261 78.00927734 200.86523438 C77.67053308 199.37514936 77.33101831 197.8852393 76.99072266 196.39550781 C76.50221149 194.25631316 76.01645909 192.11650821 75.53125 189.9765625 C75.37813354 189.30879791 75.22501709 188.64103333 75.06726074 187.95303345 C74 183.22774341 74 183.22774341 74 181 C72.02 181 70.04 181 68 181 C67.90275635 182.19987549 67.8055127 183.39975098 67.70532227 184.63598633 C66.21360692 202.58687747 64.35242773 220.49840317 62.48608398 238.41333008 C62.02328779 242.85671032 61.56495971 247.30053958 61.10771847 251.74449444 C60.75199441 255.19589563 60.39361538 258.64701724 60.03445625 262.09806252 C59.86410929 263.73861161 59.69466796 265.37925502 59.52616692 267.01999474 C59.2922567 269.29446992 59.05468426 271.56853378 58.81616211 273.8425293 C58.68229599 275.13217087 58.54842987 276.42181244 58.4105072 277.75053406 C58.09316373 280.26254067 57.70121412 282.57512174 57 285 C68.09567343 282.81175814 78.05693 280.79068359 86.4375 272.625 C89.73960726 267.0774598 91.21805831 263.22894296 90.3125 256.75 C90.189487 252.50898041 90.76524053 251.26809601 93.61328125 248.015625 C96.61176119 245.32406576 99.78828328 242.8767924 103.02001953 240.47314453 C105.49566402 238.63121619 107.91206085 236.72025108 110.33105469 234.80493164 C111.49065836 233.88911944 112.65412451 232.97817797 113.82128906 232.07202148 C117.76883873 229.00689761 121.5890344 225.82411141 125.375 222.5625 C161.1600865 191.92244431 200.94820041 171.39329436 249.12207031 174.12011719 C259.21295274 174.91423676 268.50762688 177.71255656 278 181 C278.97324219 181.33435059 279.94648437 181.66870117 280.94921875 182.01318359 C287.64232558 184.31522541 294.32499184 186.64602433 301 189 C301 189.66 301 190.32 301 191 C290.17973908 191.21828489 279.40770333 190.47955034 268.61181641 189.85449219 C220.47901834 187.08899627 191.5969547 201.52366799 152.96875 229.17578125 C150.30387767 231.08328952 147.61705859 232.95135861 144.90625 234.79296875 C144.257771 235.23930664 143.60929199 235.68564453 142.94116211 236.14550781 C141.72973927 236.97862668 140.51217574 237.80291955 139.28735352 238.61621094 C135.77744537 241.05339847 134.04025731 242.83897076 133 247 C132.65327174 249.6114692 132.36681706 252.19261109 132.125 254.8125 C130.98639824 264.91502365 128.64991862 270.15412401 120.8046875 276.65234375 C119 278 119 278 117 279 C137.78410371 278.55689956 153.61309909 276.89893241 172 267 C204.67477657 249.57291437 239.20350784 245.39958383 275.8125 249.375 C276.99328125 249.50100586 278.1740625 249.62701172 279.390625 249.75683594 C287.74309657 250.74309657 287.74309657 250.74309657 290 253 C289.00597168 253.26103516 288.01194336 253.52207031 286.98779297 253.79101562 C285.57258769 254.16274728 284.1573862 254.53449333 282.7421875 254.90625 C281.98022064 255.10638199 281.21825378 255.30651398 280.43319702 255.51271057 C276.16936289 256.63300524 271.90605003 257.75523679 267.64355469 258.88061523 C265.87956683 259.34622755 264.1155694 259.81180358 262.3515625 260.27734375 C261.4692395 260.51021591 260.5869165 260.74308807 259.67785645 260.98301697 C255.00887485 262.21344928 250.33721175 263.43196849 245.65975952 264.62979126 C197.37275874 275.39119587 197.37275874 275.39119587 159 304 C156.44508521 308.73626502 154.47599916 313.59580248 152.75 318.6875 C149.09688396 325.60232679 142.39031477 329.77650665 136 334 C137.48527191 334.17126656 137.48527191 334.17126656 139.00054932 334.34599304 C148.47009247 335.43908953 157.93851001 336.54153333 167.40597916 337.65245342 C172.2698206 338.22289437 177.13396465 338.79037013 181.99902344 339.3503418 C269.36220868 349.41526251 269.36220868 349.41526251 306.3203125 379.07421875 C310.40060806 382.34180887 314.56798883 385.48919693 318.75 388.625 C319.78809814 389.40677612 319.78809814 389.40677612 320.84716797 390.2043457 C324.28348759 392.82152687 324.28348759 392.82152687 328 395 C326.87548273 397.9719385 325.77706209 400.33440687 324 403 C320.59234519 402.37692993 318.46663845 401.10245482 315.6875 399.0625 C288.70355181 379.78260729 259.76593534 365.98278938 225.875 365.796875 C225.01798492 365.78986069 224.16096985 365.78284637 223.27798462 365.77561951 C220.51860276 365.75817795 217.75943498 365.75176637 215 365.75 C214.06291199 365.74932526 213.12582397 365.74865051 212.16033936 365.74795532 C200.93648427 365.76081376 189.78551454 365.88353463 178.625 367.1875 C177.67753906 367.28836914 176.73007812 367.38923828 175.75390625 367.49316406 C171.78027633 368.04905271 169.62539311 368.42987895 166.61328125 371.17578125 C164.77885392 374.3871395 163.10843038 377.64271268 161.5625 381 C158.79845972 386.95134427 155.71996059 392.40096966 149.3125 394.875 C139.62350324 397.96685054 131.5006907 393.76938148 122.83203125 389.69140625 C117.21441171 387.11937335 111.79485875 385.78856944 105.625 385.4375 C103.79388672 385.32148437 103.79388672 385.32148437 101.92578125 385.203125 C99.2755185 385.06599698 96.63198731 384.94888853 93.98046875 384.859375 C69.69468007 383.93778401 49.16442999 376.44295333 29 363 C29 362.34 29 361.68 29 361 C30.20011719 361.06058594 31.40023437 361.12117188 32.63671875 361.18359375 C45.09016416 361.81030116 57.54465824 362.41224793 70 363 C69.52280518 362.66379639 69.04561035 362.32759277 68.55395508 361.98120117 C58.30423368 354.73517828 48.40721316 347.31246305 39 339 C38.11957031 338.23042969 37.23914063 337.46085937 36.33203125 336.66796875 C26.68469618 328.12745972 17.95599054 319.13945278 10 309 C9.19691406 307.99066406 8.39382813 306.98132812 7.56640625 305.94140625 C-20.08850798 270.89558063 -58.64253062 207.13502947 -57 161 C-53.63331789 164.20264424 -50.77349704 167.70776245 -47.9375 171.375 C-46.95710272 172.63286821 -45.97663192 173.89067912 -44.99609375 175.1484375 C-44.49835449 175.7887793 -44.00061523 176.42912109 -43.48779297 177.08886719 C-41.16898546 180.06747322 -38.83411621 183.03338654 -36.5 186 C-35.58846255 187.16009409 -34.67700454 188.3202506 -33.765625 189.48046875 C-31.88081257 191.87938187 -29.99530981 194.27775042 -28.109375 196.67578125 C-23.05513592 203.10346418 -18.00945509 209.53729002 -13 216 C-11.35 215.67 -9.7 215.34 -8 215 C-10.8863911 202.61579126 -14.51986635 190.51458358 -18.25671387 178.36480713 C-26.61817091 151.09219428 -34.93910663 123.4704576 -38 95 C-38.0920874 94.18853516 -38.1841748 93.37707031 -38.27905273 92.54101562 C-39.07859528 84.81895016 -39.19241922 77.13408599 -39.1875 69.375 C-39.18669434 68.05717529 -39.18588867 66.73935059 -39.18505859 65.3815918 C-39.02615277 40.03922916 -39.02615277 40.03922916 -35 34 C-30.19167816 48.64813658 -25.93767552 63.45226474 -21.69604492 78.27197266 C-21.4598645 79.09468155 -21.22368408 79.91739044 -20.98034668 80.76502991 C-20.53084483 82.33129161 -20.08302093 83.89803609 -19.63708496 85.46531677 C-18.55180151 89.31970863 -18.55180151 89.31970863 -17 93 C-16.01 93 -15.02 93 -14 93 C-13.91503517 91.3626162 -13.91503517 91.3626162 -13.82835388 89.69215393 C-13.25135038 78.81167765 -12.51709584 67.95160742 -11.66015625 57.08984375 C-11.59737425 56.29118959 -11.53459225 55.49253544 -11.46990776 54.66967964 C-11.13956175 50.47317668 -10.80637604 46.27691014 -10.47094727 42.08081055 C-10.12564447 37.75271994 -9.7914337 33.42384067 -9.45935917 29.09471798 C-9.20053889 25.7477807 -8.93338833 22.40154662 -8.663908 19.05545235 C-8.53671414 17.45724128 -8.41275203 15.85876963 -8.29207039 14.26005363 C-8.12423644 12.04617007 -7.94462238 9.83355206 -7.76196289 7.62084961 C-7.66283096 6.36275986 -7.56369904 5.1046701 -7.46156311 3.80845642 C-7.30924728 2.8816658 -7.15693146 1.95487518 -7 1 C-4.25345395 -0.37327303 -3.04670253 -0.63768192 0 0 Z " fill="#000000" transform="translate(839,1575)"/>
<path d="M0 0 C1.92888206 1.82099181 3.83892062 3.66020909 5.75 5.5 C6.43191406 6.10714844 7.11382813 6.71429687 7.81640625 7.33984375 C15.15112378 14.05102825 21.25653609 23.98337371 22.015625 34.0078125 C22.01046875 35.20148438 22.0053125 36.39515625 22 37.625 C22.00515625 38.82382813 22.0103125 40.02265625 22.015625 41.2578125 C21.763724 44.33248652 21.52912019 46.01616337 19.75 48.5 C13.16849803 51.79075098 6.37613984 52.92589554 -0.78466797 50.71875 C-3.39743043 49.62013857 -5.91290262 48.41322417 -8.4375 47.125 C-9.34878662 46.67310303 -10.26007324 46.22120605 -11.19897461 45.75561523 C-23.29916421 39.62203051 -33.67425818 32.41256774 -43.50390625 23.09765625 C-60.40439695 7.11070559 -80.47235616 -0.67398164 -103.7253418 -0.61401367 C-109.10563319 -0.43997502 -114.32120161 0.33573991 -119.625 1.21875 C-120.75075439 1.39974243 -121.87650879 1.58073486 -123.03637695 1.76721191 C-134.16057386 3.58764161 -145.211507 5.72242458 -156.25 8 C-157.3232251 8.21955353 -158.3964502 8.43910706 -159.50219727 8.66531372 C-183.62191739 13.60971804 -207.66095323 18.93293772 -231.69818115 24.26126099 C-234.73495459 24.93416615 -237.77200046 25.60583085 -240.80908203 26.27734375 C-245.65751261 27.35004873 -250.50476965 28.4279166 -255.35118103 29.5097065 C-257.14926912 29.91054533 -258.94765053 30.31007108 -260.74635315 30.70814323 C-271.02311816 32.98456887 -281.17023328 35.45774758 -291.25 38.5 C-291.25 37.84 -291.25 37.18 -291.25 36.5 C-289.65551758 35.27001953 -289.65551758 35.27001953 -287.39453125 33.8828125 C-286.55583496 33.36468994 -285.71713867 32.84656738 -284.85302734 32.31274414 C-283.93215332 31.75578857 -283.0112793 31.19883301 -282.0625 30.625 C-281.11068848 30.04419678 -280.15887695 29.46339355 -279.17822266 28.86499023 C-206.85956943 -15.02786842 -80.29270564 -69.99968277 0 0 Z " fill="#000000" transform="translate(1180.25,1003.5)"/>
</svg>
